<svg width="115" height="45" viewBox="0 0 115 45" fill="none" xmlns="http://www.w3.org/2000/svg">
<g clip-path="url(#clip0_189_4)">
<path fill-rule="evenodd" clip-rule="evenodd" d="M0.14117 0.59767H44.6231C44.6606 0.59767 44.6966 0.613248 44.7232 0.639663C44.7498 0.666077 44.7649 0.701785 44.7652 0.739272V6.05177C44.7653 6.07046 44.7615 6.08917 44.7545 6.10646C44.7474 6.12375 44.7369 6.13915 44.7237 6.15236C44.7105 6.16557 44.6951 6.17652 44.6778 6.18361C44.6605 6.1907 44.6418 6.19448 44.6231 6.19435H28.002V31.2197C28.002 31.2571 27.9874 31.2929 27.961 31.3193C27.9346 31.3458 27.8983 31.3613 27.8609 31.3613H16.7798C16.7424 31.3613 16.7067 31.3458 16.6802 31.3193C16.6538 31.2929 16.6392 31.2571 16.6392 31.2197V6.19826H0.139217C0.120616 6.19826 0.10219 6.19466 0.0850178 6.18751C0.0678454 6.18037 0.0522255 6.16946 0.0391193 6.15626C0.0260131 6.14307 0.0153844 6.12759 0.00835761 6.11037C0.00133078 6.09314 -0.00202822 6.07428 -0.0018963 6.05568V0.743178C-0.00243811 0.724158 0.000900301 0.70522 0.00786933 0.687514C0.0148384 0.669809 0.0252703 0.65321 0.038631 0.639663C0.0519918 0.626115 0.0678992 0.615627 0.085506 0.608413C0.103113 0.601198 0.122145 0.597393 0.14117 0.59767Z" fill="#1B2240"/>
<path fill-rule="evenodd" clip-rule="evenodd" d="M114.633 0.708988V31.2168C114.633 31.2545 114.618 31.2898 114.591 31.3164C114.564 31.343 114.529 31.3584 114.491 31.3584H103.411C103.374 31.3584 103.337 31.343 103.311 31.3164C103.284 31.2898 103.269 31.2545 103.269 31.2168V0.708988C103.269 0.690387 103.272 0.672449 103.279 0.655277C103.287 0.638104 103.297 0.622484 103.311 0.609378C103.324 0.596272 103.339 0.586132 103.357 0.579105C103.374 0.572078 103.393 0.568231 103.411 0.568363H114.491C114.51 0.568231 114.528 0.572078 114.545 0.579105C114.562 0.586132 114.578 0.596272 114.591 0.609378C114.604 0.622484 114.615 0.638104 114.622 0.655277C114.629 0.672449 114.633 0.690387 114.633 0.708988Z" fill="#1B2240"/>
<path fill-rule="evenodd" clip-rule="evenodd" d="M56.7686 26.6998C56.4576 26.7488 56.497 27.0561 56.709 27.0621C69.553 27.3041 63.9492 34.609 57.2832 43.774C57.0482 44.123 57.4138 44.1983 57.7168 43.8013C62.1328 39.0313 66.804 34.4162 71.752 29.7652C76.694 25.2932 76.2036 23.8095 68.1826 24.8365C66.4016 25.1195 57.8496 26.5268 56.7686 26.6998Z" fill="#E61C2E"/>
<path fill-rule="evenodd" clip-rule="evenodd" d="M47.138 22.1087C46.722 29.3347 52.7701 29.8374 59.3461 29.7904C53.1821 31.4234 47.0256 32.7492 40.9466 31.1312C36.1036 29.7012 35.6708 26.1157 38.4818 21.8617C40.2363 19.3799 42.371 17.1898 44.807 15.3724C55.171 7.12741 70.6729 0.799725 83.8939 0.0257254C93.6649 -0.356275 97.3931 3.53312 92.5931 10.5511C88.8931 15.3381 82.9552 19.6671 75.6312 23.4271C75.3422 23.5521 75.1749 23.4265 75.6429 23.1195C83.4689 17.6825 87.3559 10.2053 82.4339 5.91928C78.3269 3.11128 72.0167 3.20473 63.3617 6.65073C53.3737 11.1417 47.526 18.1397 47.138 22.1087Z" fill="#1B2240"/>
</g>
<defs>
<clipPath id="clip0_189_4">
<rect width="114.633" height="44.064" fill="white"/>
</clipPath>
</defs>
</svg>
